<svg xmlns="http://www.w3.org/2000/svg" width="800" height="200" style="background-color:#282828"><defs><style>.pixel{shape-rendering:crispEdges}</style><filter id="sun-glow" width="200%" height="200%" x="-50%" y="-50%"><feGaussianBlur result="coloredBlur" stdDeviation="3"><animate attributeName="stdDeviation" dur="4s" repeatCount="indefinite" values="3;5;3"/></feGaussianBlur><feMerge><feMergeNode in="coloredBlur"/><feMergeNode in="SourceGraphic"/></feMerge></filter><filter id="water-ripple"><feTurbulence baseFrequency="0.01 0.04" numOctaves="2" result="turbulence" type="fractalNoise"><animate attributeName="baseFrequency" dur="8s" repeatCount="indefinite" values="0.01 0.04;0.02 0.06;0.01 0.04"/></feTurbulence><feDisplacementMap in="SourceGraphic" in2="turbulence" scale="2"/></filter></defs><rect width="800" height="200" x="0" y="0" fill="#83a598" class="pixel"/><g style="filter:url(#sun-glow)"><rect width="60" height="60" x="650" y="30" fill="#fabd2f" class="pixel"><animate attributeName="fill" dur="4s" repeatCount="indefinite" values="#fabd2f;#fef08a;#fabd2f"/></rect></g><path fill="#665c54" d="M0 150 L50 120 L100 160 L150 130 L200 170 L250 140 L300 180 L350 150 L400 190 L450 160 L500 200 H0 Z" class="pixel"/><path fill="#7c6f64" d="M300 160 L350 130 L400 170 L450 140 L500 180 L550 150 L600 190 L650 160 L700 200 H300 Z" class="pixel"/><path fill="#928374" d="M550 170 L600 140 L650 180 L700 150 L750 190 L800 160 L800 200 H550 Z" class="pixel"/><rect width="800" height="20" x="0" y="180" fill="#458588" class="pixel" style="filter:url(#water-ripple)"/><text x="50%" y="45%" fill="#ebdbb2" dominant-baseline="middle" font-family="'Courier New', monospace" font-size="40" text-anchor="middle" style="text-shadow:2px 2px #3c3836">Anderson González</text><text x="50%" y="65%" fill="#ebdbb2" dominant-baseline="middle" font-family="'Courier New', monospace" font-size="20" text-anchor="middle" style="text-shadow:1px 1px #3c3836">El Viaje de un Desarrollador</text></svg>