<svg width="800" height="20" xmlns="http://www.w3.org/2000/svg">
  <style>.pixel{shape-rendering: crispEdges;}</style>
  <path class="pixel" fill="#b8bb26" d="M0 10 H10 V0 H20 V10 H30 V0 H40 V10 H50 V0 H60 V10 H70 V0 H80 V10 H90 V0 H100 V10 H110 V0 H120 V10 H130 V0 H140 V10 H150 V0 H160 V10 H170 V0 H180 V10 H190 V0 H200 V10 H210 V0 H220 V10 H230 V0 H240 V10 H250 V0 H260 V10 H270 V0 H280 V10 H290 V0 H300 V10 H310 V0 H320 V10 H330 V0 H340 V10 H350 V0 H360 V10 H370 V0 H380 V10 H390 V0 H400 V10 H410 V0 H420 V10 H430 V0 H440 V10 H450 V0 H460 V10 H470 V0 H480 V10 H490 V0 H500 V10 H510 V0 H520 V10 H530 V0 H540 V10 H550 V0 H560 V10 H570 V0 H580 V10 H590 V0 H600 V10 H610 V0 H620 V10 H630 V0 H640 V10 H650 V0 H660 V10 H670 V0 H680 V10 H690 V0 H700 V10 H710 V0 H720 V10 H730 V0 H740 V10 H750 V0 H760 V10 H770 V0 H780 V10 H790 V0 H800 V10 Z" />
  <path class="pixel" fill="#98971a" d="M5 15 H15 V5 H25 V15 H35 V5 H45 V15 H55 V5 H65 V15 H75 V5 H85 V15 H95 V5 H105 V15 H115 V5 H125 V15 H135 V5 H145 V15 H155 V5 H165 V15 H175 V5 H185 V15 H195 V5 H205 V15 H215 V5 H225 V15 H235 V5 H245 V15 H255 V5 H265 V15 H275 V5 H285 V15 H295 V5 H305 V15 H315 V5 H325 V15 H335 V5 H345 V15 H355 V5 H365 V15 H375 V5 H385 V15 H395 V5 H405 V15 H415 V5 H425 V15 H435 V5 H445 V15 H455 V5 H465 V15 H475 V5 H485 V15 H495 V5 H505 V15 H515 V5 H525 V15 H535 V5 H545 V15 H555 V5 H565 V15 H575 V5 H585 V15 H595 V5 H605 V15 H615 V5 H625 V15 H635 V5 H645 V15 H655 V5 H665 V15 H675 V5 H685 V15 H695 V5 H705 V15 H715 V5 H725 V15 H735 V5 H745 V15 H755 V5 H765 V15 H775 V5 H785 V15 H795 V5" />
</svg>
