<svg width="64" height="64" xmlns="http://www.w3.org/2000/svg">
  <style>.pixel{shape-rendering: crispEdges;}</style>
  <g transform="translate(8 8)">
    <!-- Potion Bottle Glass -->
    <path class="pixel" fill="#928374" d="M16 0 H32 V8 H40 V24 H32 V32 H16 V24 H8 V8 H16 V0 Z"/>
    <path class="pixel" fill="#d5c4a1" d="M18 2 H30 V6 H38 V22 H30 V30 H18 V22 H10 V6 H18 V2 Z"/>
    <!-- Potion Liquid -->
    <path class="pixel" fill="#cc241d" d="M10 14 H38 V22 H30 V30 H18 V22 H10 V14 Z"/>
    <!-- Bubbles -->
    <rect class="pixel" fill="#fb4934" x="14" y="16" width="4" height="4"/>
    <rect class="pixel" fill="#fb4934" x="28" y="20" width="4" height="4"/>
    <rect class="pixel" fill="#fb4934" x="20" y="24" width="4" height="4"/>
    <!-- Shine -->
    <path class="pixel" fill="#fbf1c7" d="M20 4 H26 V6 H22 V8 H20 V4 Z"/>
  </g>
</svg>
