<svg xmlns="http://www.w3.org/2000/svg" width="64" height="64"><style>.pixel{shape-rendering:crispEdges}</style><g><path fill="#e6f7ef" d="M8 0 H40 V8 H48 V48 H8 V40 H0 V0 H8 Z" class="pixel" transform="translate(8 8)"/><path fill="#fbfdf8" d="M10 2 H38 V8 H46 V46 H10 V40 H2 V2 H10 Z" class="pixel" transform="translate(8 8)"/><path fill="#E46D2F" d="M20 32 H28 V40 H20 Z" class="pixel" transform="translate(8 8)"/><path fill="#c64a1d" d="M22 34 H26 V38 H22 Z" class="pixel" transform="translate(8 8)"/><path fill="#0b3a2b" d="M14 10 H42 V12 H14 Z M14 16 H42 V18 H14 Z M14 22 H38 V24 H14 Z M14 28 H34 V30 H14 Z" class="pixel" transform="translate(8 8)"/></g></svg>